<?xml version="1.0" encoding="utf-8"?>
<!-- Generator: Adobe Illustrator 24.1.2, SVG Export Plug-In . SVG Version: 6.00 Build 0)  -->
<svg version="1.1" id="Layer_1" xmlns="http://www.w3.org/2000/svg" xmlns:xlink="http://www.w3.org/1999/xlink" x="0px" y="0px"
	 viewBox="0 0 595.3 841.9" style="enable-background:new 0 0 595.3 841.9;" xml:space="preserve">
<style type="text/css">
	.st0{fill:#FFFFFF;}
	.st1{fill:#1D9ED8;}
	.st2{fill:#ABC837;}
	.st3{clip-path:url(#SVGID_2_);}
	.st4{fill:#1E2836;}
	.st5{font-family:'Politica-Bold';}
	.st6{font-size:12.7878px;}
	.st7{fill:#009FE2;}
	.st8{fill:#AFCA1F;}
	.st9{fill:#008544;}
</style>
<g>
	<g id="Layer_1_1_">
		<g>
			<rect y="1" class="st0" width="595.3" height="841.9"/>
			<g>
				<polygon class="st1" points="595.1,842.3 579.2,842.3 579.2,464.7 595.1,464.7 				"/>
				<polygon class="st2" points="595.1,468.2 579.2,482.4 579.2,332 595.1,332 				"/>
				<polygon class="st1" points="595.1,363.9 579.2,378.1 579.2,0.4 595.1,0.4 				"/>
			</g>
			<g>
				<polygon class="st1" points="16.4,841.9 0.5,841.9 0.5,464.2 16.4,464.2 				"/>
				<polygon class="st2" points="16.4,467.8 0.5,482 0.5,331.6 16.4,331.6 				"/>
				<polygon class="st1" points="16.4,363.5 0.5,377.7 0.5,0 16.4,0 				"/>
			</g>
			<g>
				<g>
					<defs>
						<rect id="SVGID_1_" x="0.5" y="1" width="594.2" height="841.9"/>
					</defs>
					<clipPath id="SVGID_2_">
						<use xlink:href="#SVGID_1_"  style="overflow:visible;"/>
					</clipPath>
					<g class="st3">
						<g>
							
								<image style="overflow:visible;opacity:0.8;enable-background:new    ;" width="3009" height="2040" xlink:href="13CB6B25.png"  transform="matrix(0.24 0 0 0.24 -85.84 -116.28)">
							</image>
							<path class="st4" d="M621.1-97.7H152v-3.5L27.5-97.7H-9.8v1l-61,1.7v453.2L118.1,73.1c20.3-30.6,54.6-48.9,91.3-48.9h411.7
								V-97.7z"/>
						</g>
						<g>
							
								<image style="overflow:visible;opacity:0.8;enable-background:new    ;" width="2936" height="2040" xlink:href="13CB6B2B.png"  transform="matrix(0.24 0 0 0.24 -24.88 471)">
							</image>
							<path class="st4" d="M664.6,486L474.8,772.6c-20.3,30.6-54.6,48.9-91.2,48.9H-9.8v122H442v2.1l74.2-2.1h68.6v-1.9l79.8-2.2
								V486z"/>
						</g>
					</g>
				</g>
			</g>
		</g>
		<g>
			<text transform="matrix(1 0 0 1 485.51 823.83)" class="st0 st5 st6">www.fuidscapes.in</text>
			<path class="st0" d="M468.7,813.4c-3.5,0-6.3,2.8-6.3,6.3s2.8,6.3,6.3,6.3s6.3-2.8,6.3-6.3l0,0
				C475,816.2,472.1,813.4,468.7,813.4z M474,819.2h-1.5c0-1.5-0.4-2.9-1.2-4.2C472.8,815.9,473.8,817.5,474,819.2L474,819.2z
				 M468.2,814.5v4.8h-2.4C465.9,816.8,466.9,814.9,468.2,814.5z M468.2,820.2v4.8c-1.3-0.4-2.3-2.4-2.4-4.8H468.2z M469.1,825v-4.8
				h2.4C471.4,822.6,470.4,824.6,469.1,825z M469.1,819.2v-4.8c1.3,0.4,2.3,2.4,2.4,4.8H469.1z M466.1,815c-0.8,1.3-1.2,2.7-1.2,4.2
				h-1.5C463.5,817.4,464.5,815.9,466.1,815z M463.3,820.2h1.5c0,1.5,0.4,2.9,1.2,4.2C464.5,823.5,463.5,822,463.3,820.2
				L463.3,820.2z M471.2,824.4c0.8-1.3,1.2-2.7,1.2-4.2h1.5C473.8,822,472.8,823.6,471.2,824.4L471.2,824.4z"/>
		</g>
		<g>
			<path class="st0" d="M569.1,766.6c-5.4,0.2-9.6,4.7-9.4,10c0.2,5.1,4.3,9.2,9.4,9.4c5.4,0.2,9.9-4,10-9.4s-4-9.9-9.4-10
				C569.5,766.6,569.3,766.6,569.1,766.6z M570.2,773.7c-0.1,0.5,0.3,0.4,0.6,0.4h0.6c0.8,0,0.8,0,0.7,0.8c-0.1,0.5-0.1,0.9-0.2,1.4
				c0,0.3-0.1,0.4-0.4,0.3h-0.3c-1.2,0-1.2,0-1.2,1.2v1.9c0,0.9,0,1.7,0,2.6c0,0.3-0.1,0.5-0.4,0.5c-0.5,0-1,0-1.6,0
				c-0.4,0-0.5-0.1-0.5-0.5c0-1.7,0-3.4,0-5.1c0-0.4-0.1-0.7-0.5-0.6c-0.7,0.1-0.8-0.2-0.7-0.8c0-0.2,0-0.4,0-0.7c0-1,0-1,1-1.1
				c0.3,0,0.3-0.2,0.3-0.4c0-0.5,0-1,0.1-1.6c0.2-1,1.1-1.7,2.1-1.7c0.7,0,1.3,0,1.9,0c0.3,0,0.4,0.1,0.4,0.4c0,0.1,0,0.2,0,0.2
				c0,0.5,0.1,1-0.1,1.4s-0.8,0.1-1.3,0.2C570,772.7,570.3,773.3,570.2,773.7z"/>
			<path class="st0" d="M569.2,719.3c-5.4,0.2-9.6,4.7-9.4,10c0.2,5.1,4.3,9.2,9.4,9.4c5.4,0.2,9.9-4,10-9.4s-4-9.9-9.4-10
				C569.6,719.3,569.4,719.3,569.2,719.3z M565.8,724.5c0.6,0,1,0.5,1,1.1s-0.5,1-1.1,1l0,0c-0.5,0-1-0.5-1-1
				C564.7,725,565.2,724.5,565.8,724.5L565.8,724.5z M566.8,730.5c0,0.9,0,1.7,0,2.6c0,0.3-0.1,0.4-0.4,0.4
				c-1.8,0.1-1.8,0.1-1.8-1.7c0-1.3,0-2.5,0-3.8c0-0.4,0.1-0.6,0.5-0.5s1.2-0.2,1.6,0.1s0.1,1,0.1,1.5S566.8,730.1,566.8,730.5
				L566.8,730.5z M573.7,733.2c-0.1,0.7-0.8,0.2-1.3,0.3c-0.2,0-0.5,0.1-0.5-0.3c0.1-1,0.1-2.1,0-3.1c-0.1-0.7-0.4-1-0.9-1
				c-0.5-0.1-1,0.3-1.1,0.8v0.1c-0.1,1-0.1,2-0.1,3.1c0,0.4-0.1,0.5-0.5,0.5c-1.3,0-1.3,0-1.3-1.2s0-2.8,0-4.2
				c0-0.5,0.2-0.7,0.6-0.6c0.2,0,0.3,0,0.5,0c0.4,0,0.8,0,0.6,0.7c0.7-0.6,1.7-0.9,2.6-0.6c0.8,0.2,1.3,0.8,1.3,1.6
				C573.8,730.5,573.8,731.9,573.7,733.2L573.7,733.2z"/>
			<path class="st0" d="M569.3,743c-5.4-0.1-9.8,4.2-9.8,9.6c-0.1,5.4,4.2,9.8,9.6,9.8c5.3,0.1,9.7-4.1,9.8-9.4
				c0.2-5.3-4-9.8-9.4-10C569.5,743,569.4,743,569.3,743z M574.5,750.5c-0.3,0.2-0.4,0.6-0.4,0.9c-0.1,3.2-2.4,5.8-5.5,6.4
				c-1.6,0.3-3.3,0-4.8-0.8c-0.1,0-0.2-0.1-0.1-0.2c1.2,0.1,2.4-0.2,3.3-0.9c-1-0.1-1.8-0.7-2.2-1.6c0.2-0.2,0.5,0.1,0.8-0.2
				c-0.9-0.4-1.6-1.2-1.6-2.3c0.3,0,0.5,0.3,0.8,0.1c-0.9-0.8-1.1-2.1-0.5-3.1c0.2,0.3,0.4,0.5,0.6,0.7c1.1,1,2.5,1.6,3.9,1.8
				c0.3,0,0.4,0,0.4-0.4c-0.1-1,0.4-1.9,1.3-2.3c0.9-0.5,1.9-0.4,2.7,0.3c0.2,0.2,0.4,0.2,0.7,0.1c0.3-0.2,0.7-0.3,1.1-0.4
				c-0.1,0.4-0.4,0.8-0.7,1c0.3,0.2,0.6-0.1,1-0.1C575,750,574.8,750.3,574.5,750.5L574.5,750.5z"/>
		</g>
		<g>
			<g>
				<path class="st7" d="M39.9,85.7c0.5-0.1,0.9-0.3,1.4-0.5c0.3-0.1,0.7-0.2,1-0.4c1.8-0.6,3.5-1.2,5.3-1.7c4.5-1.4,9.1-2.7,13.7-4
					c3-0.9,5.9-1.8,8.9-2.8c2.2-0.7,4.3-1.5,6.4-2.4c1.2-0.5,2.3-1,3.5-1.5c1.5-0.7,3-1.4,4.4-2.2c2-1.1,3.9-2.3,5.8-3.6
					c0.8-0.6,1.6-1.2,2.4-1.8c0.1-0.1,0.2-0.2,0.3-0.3c0.2-0.1,0.3-0.1,0.5,0.1c0.1,0.2,0.1,0.3-0.1,0.4c-1,0.8-2,1.6-3.1,2.3
					c-1.4,1-2.9,1.9-4.4,2.8c-1.5,0.9-3.1,1.7-4.7,2.5c-2.1,1-4.2,1.9-6.4,2.7c-1.8,0.7-3.6,1.3-5.4,1.9c-2.5,0.8-5,1.6-7.4,2.3
					c-2.8,0.8-5.6,1.6-8.4,2.4c-2.4,0.7-4.8,1.4-7.2,2.1c-1.3,0.4-2.6,0.8-3.9,1.3c0,0-0.1,0.1-0.1,0.1c-0.8,0.3-1.5,0.6-2.3,0.8
					c-0.9,0.3-1.8,0.6-2.6,1c-4.4,1.7-8.7,3.7-12.7,6.2c-2.7,1.7-5.2,3.6-7.6,5.7c-0.1,0.1-0.2,0.2-0.3,0.3c-0.1,0.1-0.3,0.2-0.4,0
					c-0.1-0.1-0.1-0.3,0-0.5c0.4-0.3,0.7-0.7,1.1-1c0.5-0.4,1-0.8,1.5-1.3c0.8-0.6,1.6-1.3,2.4-1.9c1.7-1.2,3.4-2.3,5.2-3.3
					c1.4-0.8,2.8-1.5,4.2-2.2c1.9-0.9,3.9-1.8,5.9-2.6C38,86.4,39,86.1,39.9,85.7z"/>
				<path class="st8" d="M43,86.2c-0.2,0-0.4,0.1-0.6,0.2c-0.6,0.2-1.2,0.4-1.7,0.6c-0.1,0-0.1,0.1-0.1,0.1
					c-0.7,0.2-1.4,0.5-2.1,0.8c-1,0.4-2.1,0.8-3.1,1.2c-0.8,0.3-1.6,0.7-2.3,1.1c-0.9,0.4-1.8,0.8-2.6,1.3c-1.5,0.8-3,1.6-4.5,2.5
					c-1.1,0.7-2.2,1.4-3.3,2.2c-1.4,1-2.8,2.1-4.1,3.3c-0.2,0.2-0.4,0.4-0.6,0.6c-0.1,0.1-0.3,0.2-0.5,0.1c-0.2-0.2-0.1-0.3,0.1-0.5
					c4.5-4.1,9.6-7.3,15-9.9c2.5-1.2,5.1-2.2,7.6-3.2c0.1,0,0.1,0,0.2-0.1c0.4-0.2,0.8-0.3,1.2-0.4c0.4-0.2,0.9-0.3,1.3-0.5
					c0.8-0.3,1.6-0.5,2.4-0.8c2.5-0.8,5.1-1.6,7.6-2.3c3.6-1.1,7.3-2.1,10.9-3.2c3.8-1.1,7.7-2.4,11.4-3.8c1.9-0.7,3.9-1.5,5.8-2.4
					c2.7-1.2,5.2-2.6,7.7-4.1c1.4-0.9,2.7-1.8,3.9-2.7c0.4-0.3,0.9-0.7,1.3-1c0.2-0.1,0.3-0.2,0.5,0c0.1,0.1,0.1,0.3-0.1,0.5
					c-1,0.9-2.1,1.7-3.2,2.4c-1.2,0.9-2.5,1.7-3.8,2.5c-1.5,0.9-3.1,1.7-4.6,2.5c-2.1,1-4.2,1.9-6.4,2.8c-2.5,1-4.9,1.8-7.4,2.6
					c-2.5,0.8-5,1.6-7.5,2.3c-2.5,0.7-4.9,1.4-7.4,2.1c-2.1,0.6-4.2,1.2-6.3,1.9C46,85.2,44.5,85.7,43,86.2z"/>
			</g>
			<g>
				<path class="st9" d="M67.6,63.5c0,0.1-0.1,0.1-0.2,0.2c-0.6,0.2-1.3,0.4-2,0.4c-0.1,0-0.2,0-0.3,0c-0.6,0-1.2,0-1.7-0.1
					c-0.9-0.2-1.7-0.6-2.5-1.1c-1.2-0.9-1.9-2.1-2.5-3.4c-0.3-0.8-0.6-1.6-0.7-2.4c0-0.2-0.1-0.4-0.1-0.6c0.1,0,0.1,0.1,0.2,0.2
					c1,1.8,2.5,2.9,4.3,3.6c1,0.4,2,0.6,2.9,1c0.6,0.2,1.2,0.4,1.7,0.8c0.3,0.2,0.5,0.5,0.7,0.8C67.5,63.1,67.6,63.3,67.6,63.5z"/>
				<path class="st8" d="M67.6,63.5c-0.2-0.9-0.8-1.4-1.6-1.8c-0.8-0.4-1.8-0.6-2.6-0.9c-1.2-0.4-2.3-0.8-3.3-1.4
					c-1-0.7-1.7-1.5-2.3-2.5c0-0.1-0.1-0.2-0.1-0.2c0-0.2,0.1,0,0.1,0c0.6,0.3,1.2,0.5,1.8,0.7c1.2,0.4,2.5,0.6,3.7,0.9
					c1,0.3,1.9,0.6,2.8,1.2c0.8,0.6,1.2,1.4,1.4,2.3c0.1,0.3,0.1,0.5,0.1,0.8c0,0.3,0,0.6,0,0.9C67.6,63.5,67.6,63.5,67.6,63.5z"/>
			</g>
			<path class="st7" d="M24.6,127.9c-1,0.1-1.9,0.3-2.9,0.6c-0.4,0.2-0.8,0.3-1.2,0.6c-0.1,0-0.1,0-0.1-0.1c0.4-0.4,0.9-0.7,1.4-1
				c1.6-1,3.5-1.5,5.3-1.9c0.9-0.2,1.7-0.6,2.4-1.1c0.6-0.4,1.2-0.9,1.6-1.5c0.9-1.1,2.1-1.9,3.4-2.6c1-0.5,2.1-0.8,3.2-0.9
				c0.1,0,0.2,0,0.3,0c0.1,0,0.2,0,0.3,0c0.1,0,0.2,0,0.3,0c0.2,0,0.3,0,0.5,0c0.2,0,0.3,0,0.5,0c0.2,0,0.4,0,0.5,0
				c0.2,0,0.3,0,0.5,0c0.1,0,0.2,0,0.4,0c0.1,0,0.2,0,0.3,0c1.2-0.1,2.4-0.4,3.4-1c0.6-0.3,1-0.7,1.4-1.2c0.8-0.9,1.5-1.9,2.2-2.8
				c0.5-0.6,1-1.2,1.6-1.6c0.3-0.2,0.6-0.4,1-0.4c-1.2,0.7-1.8,1.8-2.3,3c-0.4,1-0.8,2-1.3,3c-0.9,1.6-2.1,2.7-3.8,3.2
				c-1,0.3-2.1,0.5-3.1,0.7c-0.5,0.1-1.1,0.2-1.6,0.2c-0.1,0-0.2,0-0.3,0c-1,0.1-2,0.4-2.9,0.8c-1.2,0.6-2.3,1.4-3.3,2.2
				c-1,0.8-2.1,1.4-3.4,1.7c-0.3,0.1-0.6,0.1-0.9,0.1c-0.1,0-0.2,0-0.3,0c-0.6,0-1.3,0-1.9,0c-0.2,0-0.4,0-0.6,0c-0.1,0-0.2,0-0.4,0
				C24.8,127.9,24.7,127.9,24.6,127.9z"/>
			<path class="st7" d="M23.4,132.8c0,0-0.1,0-0.1,0c0.6-0.7,1.4-1,2.3-1.3c0.9-0.3,1.8-0.5,2.8-0.6c1.1-0.2,2.1-0.7,3-1.4
				c0.9-0.7,1.7-1.4,2.5-2.3c1.4-1.5,3.1-2.4,5.1-2.8c1.6-0.4,3.2-0.6,4.7-1c0.9-0.2,1.7-0.7,2.4-1.3c0.7-0.6,1.3-1.3,1.8-2.1
				c0.4-0.7,0.8-1.5,1.1-2.2c0.1,0,0.1,0,0.1,0.1c0,0.1,0,0.2,0,0.4c-0.1,0.1,0,0.2,0,0.3c-0.2,1.2-0.5,2.4-1.3,3.4
				c-0.6,0.8-1.4,1.5-2.3,2c-1.1,0.6-2.3,1-3.5,1.5c-1.2,0.5-2.4,0.9-3.4,1.7c-0.5,0.4-0.9,0.9-1.3,1.4c-0.9,1-1.7,2-2.8,2.8
				c-0.7,0.4-1.5,0.7-2.3,0.9c-0.6,0.2-1.2,0.3-1.8,0.3c-0.1,0-0.3,0-0.4,0c-0.5,0-1.1,0-1.6,0c-0.2-0.1-0.3,0-0.5,0
				c-0.2,0-0.3,0-0.5,0c-0.2-0.1-0.4,0-0.6,0c-0.5,0-0.9,0-1.4,0c-0.1,0-0.2,0-0.3,0C24.5,132.3,23.9,132.5,23.4,132.8z"/>
			<path class="st7" d="M48.7,122.1c-0.6,1.3-1.3,2.5-2.1,3.6c-1.2,1.8-2.7,3.3-4.6,4.5c-1.7,1.1-3.6,1.8-5.6,2.1
				c-0.5,0.1-0.9,0.1-1.4,0.2c-0.1,0-0.2,0.1-0.2-0.1c1.4-0.7,2.5-1.7,3.6-2.8c0.5-0.5,1-1,1.5-1.6c0.7-0.8,1.6-1.2,2.5-1.6
				c1.3-0.6,2.6-1.2,3.8-2.1c0.6-0.5,1.2-1,1.7-1.6C48.2,122.6,48.5,122.3,48.7,122.1C48.7,122,48.7,122,48.7,122.1z"/>
			<path class="st7" d="M38.9,117.6c1.4-0.1,2.6-0.5,3.7-1.3c0.9-0.7,1.6-1.6,2.2-2.6c0.8-1.2,1.8-2.1,3.3-2.3c0.1,0,0.3,0,0.4,0
				c0.1,0,0.1,0,0.2,0c0.1,0,0.2,0,0.3,0c0.8,0.2,1.5,0.4,1.9,0.7c-0.9,0-1.7,0.4-2.3,0.9c-0.6,0.5-1,1-1.5,1.6
				c-0.6,0.7-1.1,1.4-1.7,2.1c-0.6,0.6-1.2,0.9-1.9,1.3c-0.9,0.4-1.8,0.6-2.7,0.8c-0.1,0-0.2,0-0.3,0c-0.1,0-0.2,0-0.3,0
				c-0.5,0-0.9,0-1.4,0c-0.7,0-1.4-0.2-2.1-0.4c-0.7-0.2-1.4-0.5-2-1c0.4,0,0.7,0.1,1.1,0.1c0.1,0,0.2,0,0.3,0c0.1,0,0.2,0,0.4,0
				c0.1,0.1,0.3,0,0.5,0c0.5,0,1,0,1.5,0C38.7,117.6,38.8,117.6,38.9,117.6z"/>
			<g>
				<path class="st0" d="M39.9,85.7c-0.3-0.7-0.6-1.4-0.9-2.1c-0.5-1.1-1-2.2-1.5-3.3c-0.3-0.6-0.6-1.3-0.9-1.9
					c-0.5-1.1-1-2.2-1.4-3.3c-0.3-0.8-0.7-1.6-1-2.4c-0.5-1.1-0.9-2.2-1.4-3.2c-0.3-0.8-0.7-1.5-1-2.3c-0.5-1.1-1-2.2-1.4-3.3
					c-0.3-0.8-0.7-1.5-1-2.3c-0.5-1.1-0.9-2.2-1.4-3.3c-0.4-0.8-0.7-1.6-1.1-2.4c-0.5-1.1-0.9-2.2-1.4-3.2c-0.2-0.5-0.5-1-0.6-1.5
					c-0.4-1.2-0.7-2.3-0.9-3.5c-0.1-0.7-0.2-1.4-0.3-2.1c-0.1-0.9-0.1-1.8-0.1-2.7c0.1-1,0.2-2,0.4-3c0.2-0.9,0.4-1.9,0.7-2.8
					c0.3-1,0.8-2,1.3-3c0.6-1.2,1.4-2.4,2.3-3.5c0.7-0.9,1.4-1.7,2.2-2.4c1.1-1,2.3-2,3.7-2.7c1.4-0.8,3-1.5,4.6-2
					c1-0.3,2-0.5,3-0.7c0.7-0.1,1.4-0.2,2.2-0.2c0,0,0.1,0,0.1-0.1c0.8,0,1.5,0,2.3,0c0,0.1,0.1,0.1,0.1,0.1c1.1,0,2.2,0.2,3.2,0.4
					c1.3,0.3,2.6,0.7,3.8,1.2c1.4,0.6,2.7,1.3,3.9,2.1c0.7,0.5,1.4,1.1,2.1,1.7c0.5,0.5,1,0.9,1.5,1.5c1,1,1.8,2.2,2.5,3.4
					c0.7,1.2,1.3,2.4,1.8,3.7c0.5,1.2,0.8,2.5,1,3.8c0.1,0.6,0.2,1.3,0.2,2c0.1,0.6,0.1,1.2,0.1,1.8c0,0.9-0.1,1.9-0.2,2.8
					c-0.2,1.6-0.6,3.1-1.1,4.5c-0.2,0.5-0.4,1.1-0.6,1.6c-0.3,0.7-1.4,0.8-1.9,0.3c-0.4-0.3-0.5-1-0.3-1.6c0.5-1,0.8-2.1,1.1-3.2
					c0.2-0.7,0.3-1.3,0.4-2C64,45,64,44,64,42.9c-0.1-1.1-0.2-2.1-0.4-3.1c-0.2-1.1-0.6-2.1-1-3.2c-0.5-1.3-1.2-2.5-2-3.7
					c-0.5-0.7-1-1.3-1.5-1.9c-0.5-0.6-1.1-1.2-1.7-1.7c-0.9-0.7-1.8-1.4-2.8-2c-1.3-0.8-2.7-1.4-4.1-1.8c-0.8-0.3-1.7-0.4-2.6-0.6
					c-1.4-0.2-2.7-0.2-4.1-0.2c-0.9,0-1.9,0.2-2.8,0.4C40,25.5,39,25.8,38,26.2c-1.1,0.4-2.1,1-3.1,1.6c-1,0.6-1.8,1.3-2.7,2.1
					c-1,0.9-1.9,1.9-2.7,3c-0.6,0.9-1.2,1.8-1.6,2.8c-0.6,1.3-1.1,2.6-1.4,3.9c-0.2,0.8-0.3,1.6-0.4,2.4c0,0.5-0.1,0.9-0.1,1.4
					c0,0.5-0.1,0.9,0,1.4c0.1,0.8,0.1,1.6,0.2,2.4c0.2,1.1,0.5,2.2,1,3.2c0.3,0.8,0.7,1.6,1,2.4c0.5,1.1,1,2.3,1.5,3.4
					c0.4,0.9,0.8,1.8,1.2,2.8c0.5,1.2,1.1,2.5,1.6,3.7c0.4,0.9,0.8,1.8,1.2,2.8c0.5,1.1,0.9,2.2,1.4,3.2c0.3,0.7,0.7,1.5,1,2.3
					c0.5,1.1,1,2.2,1.5,3.4c0.3,0.8,0.7,1.6,1,2.3c0.5,1.1,0.9,2.2,1.4,3.3c0.4,0.8,0.7,1.7,1.1,2.5c0.4,0.9,0.8,1.8,1.2,2.7
					c0,0.1-0.1,0.1-0.2,0.2c-0.6,0.2-1.2,0.4-1.9,0.7C40.2,85.7,40.1,85.8,39.9,85.7z"/>
				<path class="st0" d="M23.4,132.8c0,0.1,0.1,0.1,0.2,0.2c1.2,0.7,2.6,1.3,3.9,1.7c0.9,0.3,1.8,0.4,2.7,0.6
					c1.1,0.1,2.1,0.2,3.2,0.2c0.9,0,1.7-0.1,2.6-0.3c1.1-0.2,2.2-0.5,3.3-0.8c1.1-0.4,2.2-0.9,3.2-1.5c0.9-0.5,1.8-1.1,2.6-1.8
					c0.8-0.7,1.5-1.4,2.2-2.2c0.6-0.7,1.1-1.3,1.6-2.1c0.8-1.2,1.4-2.4,1.9-3.7c0.4-1.1,0.7-2.2,0.9-3.3c0.1-0.6,0.2-1.2,0.2-1.8
					c0.1-0.9,0.1-1.7,0.1-2.6c0-0.9-0.2-1.9-0.4-2.8c-0.3-1.2-0.7-2.4-1.2-3.5c-0.7-1.5-1.3-3-2-4.5c-0.5-1.2-1.1-2.4-1.6-3.5
					c-0.6-1.3-1.2-2.6-1.7-3.9c-0.5-1.2-1-2.3-1.6-3.5c-0.6-1.4-1.2-2.7-1.8-4.1c-0.3-0.7-0.6-1.4-1-2.2c0-0.1-0.1-0.2-0.2-0.2
					c0-0.2,0.1-0.2,0.2-0.2c0.7-0.2,1.3-0.5,2-0.7c0.1,0,0.2-0.1,0.3,0c0.2,0.7,0.6,1.3,0.8,1.9c0.5,1.1,1,2.2,1.5,3.3
					c0.3,0.7,0.7,1.5,1,2.2c0.5,1.1,1,2.2,1.5,3.3c0.3,0.7,0.6,1.4,1,2.1c0.5,1.1,1,2.3,1.5,3.4c0.3,0.7,0.7,1.5,1,2.2
					c0.5,1.1,0.9,2.2,1.4,3.3c0.7,1.5,1,3,1.3,4.6c0.1,0.7,0.2,1.3,0.3,2c0.1,1.1,0.1,2.1,0.1,3.2c0,1.1-0.2,2.2-0.5,3.3
					c-0.3,1.5-0.8,3-1.5,4.4c-0.7,1.4-1.5,2.8-2.5,4c-0.7,0.9-1.4,1.7-2.2,2.4c-0.8,0.8-1.7,1.5-2.6,2.1c-0.9,0.6-1.9,1.2-2.9,1.7
					c-1.5,0.7-3.1,1.3-4.7,1.6c-0.8,0.2-1.7,0.3-2.6,0.4c-0.5,0.1-1,0.1-1.5,0.1c-0.5,0-1,0-1.6,0c-1.1,0-2.3-0.2-3.4-0.4
					c-1-0.2-2-0.5-2.9-0.8c-1.2-0.4-2.4-1-3.5-1.6c-0.9-0.5-1.8-1.1-2.6-1.8c-0.8-0.6-1.6-1.3-2.3-2.1c-1.1-1.1-2-2.4-2.8-3.7
					c-0.9-1.5-1.6-3.1-2.1-4.8c-0.3-0.9-0.5-1.8-0.6-2.8c-0.1-0.7-0.2-1.3-0.2-2c0,0,0-0.1-0.1-0.1c0-0.9,0-1.9,0-2.8
					c0.1-0.3,0-0.6,0.1-0.8c0.1-0.4,0.1-0.9,0.2-1.3c0.1-0.6,0.6-1,1.3-0.9c0.5,0,1,0.4,1.2,1c0.1,0.3,0,0.6,0,0.9
					c-0.1,0.4-0.1,0.8-0.1,1.2c-0.1,0.7-0.1,1.4-0.1,2.1c0.1,1.2,0.2,2.3,0.5,3.5c0.3,1.4,0.8,2.8,1.4,4.1c0.6,1.3,1.4,2.5,2.3,3.7
					c0.6,0.7,1.2,1.4,1.9,2c1,0.9,2,1.7,3.2,2.4c0,0,0,0,0,0C23.3,132.7,23.4,132.7,23.4,132.8z"/>
				<path class="st0" d="M99.4,83.6c-0.1-0.3-0.2-0.6-0.4-0.9c-0.4-0.7-1.1-1.2-1.7-1.7c-1.1-0.8-2.2-1.4-3.4-2.1
					c-0.6-0.4-1.2-0.7-1.7-1.2c-0.6-0.7-0.6-1.1-0.2-1.7c0.1-0.1,0.2-0.3,0.2-0.4c0.2-0.4,0.2-0.7,0-1.1c-0.4-0.8-1-1.4-1.7-1.7
					c-0.2-0.1-0.3,0-0.5,0c-0.1,0-0.3,0-0.4,0c-0.1,0-0.2,0-0.4,0c-0.5,0.1-0.9,0.2-1.2,0.6c-0.4,0.4-0.4,0.9-0.4,1.4
					c0,0.4,0.1,0.7,0.2,1.1c0,0.8,0,1.6,0,2.4c-0.1,0.2,0,0.5,0,0.7c0,0.2,0,0.3,0,0.5c0,0.1,0,0.3,0,0.4c0,0.1,0,0.2,0,0.4
					c0,0.1,0,0.2,0,0.3c0,0.1,0,0.2,0,0.2c0,0.1,0,0.2,0,0.3c0,0.2,0,0.4-0.1,0.5c-0.1,0.4-0.1,0.8-0.2,1.1
					c-0.1,0.6-0.3,1.3-0.5,1.9c-0.2,0.5-0.4,1-0.7,1.5c-0.5,0.7-1,1.3-1.9,1.6c0,0-0.1,0-0.1,0c-0.1-0.1,0-0.2,0-0.2c0,0,0,0,0,0
					c0-0.3,0.1-0.6,0.2-0.9c0.4-1.4,0.9-2.8,1.1-4.3c0-0.1,0-0.3,0-0.4c0-0.1,0-0.3,0-0.4c0-0.1,0-0.2,0-0.4c0-0.2-0.1-0.3-0.1-0.5
					c-0.4-1.6-2.3-2.4-3.7-1.7c-0.8,0.4-1.3,1.1-1.7,1.9c-0.4,0.8-0.7,1.7-0.8,2.7c0,0.1,0,0.2,0,0.3c0,0.1,0,0.2,0,0.3
					c0,0.4,0,0.8,0,1.2c0,0.7,0.2,1.3,0.4,1.9c0.2,0.5,0.4,0.9,0.5,1.4c0,0.1,0,0.2-0.1,0.3c-0.4,0.2-0.7,0.5-1.1,0.7
					c-0.1,0.1-0.2,0.1-0.2-0.1c0-0.1,0-0.1,0-0.2c-0.2-0.8-0.4-1.6-0.9-2.3c-0.4-0.5-0.8-0.9-1.1-1.3c-0.7-0.9-1.4-1.7-2.4-2.2
					c-0.9-0.6-1.8-1.3-3-1.1c-0.1,0-0.2,0-0.3,0c-0.1,0-0.2,0-0.3,0c-0.2,0.1-0.3,0-0.4-0.2c-0.2-0.6-0.4-1.1-1.1-1.3
					c-0.2,0-0.4,0-0.6,0c-0.4,0.1-0.6,0.3-0.7,0.6c-0.1,0.3-0.2,0.6-0.2,0.9c0,0.2,0,0.3,0,0.5c0,0.1,0,0.3,0,0.4
					c0.1,0.2,0,0.4,0,0.6c0,0.1,0,0.2,0,0.4c0,0.1,0,0.2,0,0.3c0,0.1,0,0.2,0,0.3c0,0.1,0,0.2,0,0.3c0,0.2,0,0.5,0.1,0.7
					c0,0.1,0,0.2,0,0.3c0,0.1,0,0.1,0,0.2c0.1,0.1,0,0.2,0,0.3c0,0.2,0,0.4,0.1,0.6c0,0.1,0,0.2,0,0.3c0,0.1,0,0.2,0,0.2
					c0,0.1,0,0.2,0,0.3c0,0.1,0,0.2,0,0.3c0.1,0.1,0,0.3,0,0.4c0,0.1,0,0.3,0,0.4c0.1,0.2,0,0.5,0,0.7c0,0.1,0,0.2,0,0.3
					c0,0,0,0,0,0c0,0,0,0,0,0c0,0.2,0,0.5,0,0.7c0,0,0,0,0,0c-0.1,0.7-0.3,1.4-0.5,2.1c-0.2,0.5-0.4,1-0.9,1.4
					c-0.3,0.2-0.5,0.2-0.8,0.1c-0.2-0.1-0.3-0.2-0.5-0.4c-0.3-0.2-0.5-0.5-0.9-0.6c-0.2-0.1-0.3-0.2-0.2-0.3c0-0.1,0-0.2,0-0.3
					c0-0.2-0.1-0.4-0.1-0.6c-0.2-1.2-0.5-2.3-1.1-3.4C62.6,87.7,62,87,61,87c-0.1,0-0.2,0-0.3,0c-0.5,0.1-1,0.2-1.5,0.4
					c-0.7,0.4-1.4,0.9-1.9,1.6c-0.4,0.5-0.7,1-1,1.6c-0.3,0.6-0.4,1.2-0.5,1.8c0,0.2,0,0.3,0,0.5c0,0.1,0,0.2,0,0.3
					c0.1,0.1,0,0.3,0,0.4c0,0.2,0,0.5,0.1,0.7c0.2,0.6,0.4,1.3,0.6,1.9c0.2,0.6,0.5,1.2,0.9,1.8c0,0.1,0,0.2,0,0.3
					c-0.2,1-1.5,1.8-2.3,1.8c-0.2,0-0.4,0-0.5,0c-0.8-0.1-1.3-0.5-1.7-1.1c-0.9-1.2-1.1-2.6-1.3-4c0-0.1,0-0.2,0-0.4
					c0-0.1,0-0.3,0-0.4c0-0.4,0-0.9,0-1.3c0-0.2,0-0.4,0-0.6c0.2-0.7,0.3-1.5,0.5-2.2c0-0.1,0-0.2,0-0.3c0-0.2,0-0.3,0-0.5
					c0-0.1,0-0.2,0-0.3c-0.1-0.5-0.4-0.9-0.9-1c-0.2,0-0.5,0-0.7,0c-0.1,0-0.2,0.1-0.3,0.2c-0.2,0.3-0.3,0.6-0.4,0.9
					c-0.2,0.7-0.3,1.3-0.4,2c0,0.1,0,0.2,0,0.3c0,0.1,0,0.2,0,0.3c0,0.2,0,0.3,0,0.5c0,0.6,0,1.1,0,1.7c0.1,0.1,0,0.3,0,0.5
					c0,0.1,0,0.2,0,0.3c0,0.1,0,0.2,0,0.3c0.1,0.6,0.2,1.2,0.3,1.7c0.2,0.9,0.6,1.8,1.1,2.7c0.3,0.4,0.5,0.8,0.9,1.1
					c0.6,0.5,1.2,0.9,1.9,1.3c1.2,0.5,2.3,0.5,3.5-0.1c0.9-0.5,1.6-1.2,2.2-2c0.5-0.6,0.9-1.2,1.4-1.7c0.1-0.1,0.2,0,0.3,0
					c0.1,0,0.2,0,0.2,0c1-0.1,1.6-0.5,1.9-1.5c0.1-0.3,0.2-0.6,0.3-1c0-0.3,0.2-0.3,0.4-0.2c0.5,0.1,0.8,0.4,1.2,0.7
					c0.4,0.3,0.8,0.6,1.3,0.7c0.2,0,0.4,0,0.6,0c0,0,0,0,0,0c0,0,0,0,0,0c0.2-0.1,0.4-0.1,0.5-0.2c0.9-0.5,1.5-1.2,1.9-2.1
					c0.1-0.3,0.3-0.4,0.6-0.5c0,0,0.1-0.1,0.1,0c0,0.1,0,0.3,0,0.4c0,0.1,0,0.1,0,0.2c0,0.1,0.1,0.2,0,0.3c0,0.4,0.1,0.8,0.2,1.3
					c0.1,0.8,0.3,1.6,0.5,2.4c0.2,1.1,0.4,2.2,0.7,3.2c0.2,0.9,0.4,1.8,0.6,2.7c0.2,0.8,0.4,1.5,0.9,2.1c0.4,0.5,0.8,0.9,1.4,1
					c0.7,0.2,1.4-0.4,1.5-1.1c0-0.2,0.1-0.3-0.1-0.5c-0.2-0.3-0.5-0.5-0.9-0.5c-0.1,0-0.2-0.1-0.2-0.2c-0.5-2.2-0.9-4.3-1.4-6.5
					c-0.5-2.2-1-4.4-1.4-6.6c0-0.1-0.1-0.1,0-0.2c0,0,0.1,0,0.2,0c0.4,0.2,0.8,0.4,1.1,0.6c0.5,0.3,1,0.5,1.5,0.5c0.1,0,0.3,0,0.4,0
					c0,0,0,0,0,0c0,0,0,0,0,0c0.1,0,0.2,0,0.4,0c0.2-0.1,0.4,0,0.6,0c0.1,0,0.2,0,0.3,0c0.1,0,0.2,0,0.3,0c0.1,0,0.1,0,0.2,0
					c0.1,0,0.2,0,0.3,0c0.2,0,0.4-0.1,0.6-0.1c1.1-0.5,2.1-1.2,3-1.9c0.7-0.5,1.4-1,2.3-1.1c0.9-0.2,1.7-0.5,2.5-1
					c1-0.6,1.9-1.4,2.7-2.3c0.6-0.7,1.1-1.5,1.3-2.5c0.4-1.4,0.6-2.8,0.8-4.3c0-0.1,0-0.2,0-0.4c0-0.1,0-0.1,0.1-0.1
					c0.2,0.1,0.4,0.2,0.5,0.3c0.4,0.3,0.7,0.6,1.1,0.9c0.9,0.7,2,1,3,1.6c0.6,0.4,1.2,0.8,1.5,1.5c0,0.2-0.1,0.1-0.2,0.1
					c-0.2,0-0.4,0.1-0.6,0.1c-1.6,0.3-3.2,0.7-4.6,1.4c-0.8,0.4-1.5,0.8-2.1,1.3c-0.7,0.6-1.3,1.3-1.5,2.3c0,0.1-0.1,0.3,0,0.5
					c0.3,0.2,0.6,0.4,0.9,0.6c0.2,0.1,0.4,0.3,0.6,0.2c0.4-0.3,0.8-0.5,1-1c0.1-0.3,0.2-0.5,0.4-0.7c0.7-0.6,1.4-1,2.2-1.3
					c0.9-0.4,1.9-0.7,2.9-0.9c0.9-0.2,1.8-0.4,2.7-0.8c0.5-0.2,0.9-0.5,1.1-1C99.4,84,99.4,83.8,99.4,83.6z M60.6,92.2
					c-0.1,0.5-0.3,1-0.5,1.4c-0.3,0.8-0.8,1.5-1.1,2.4c-0.3-0.6-0.5-1.3-0.5-2c-0.1-2,0.7-3.3,1.8-4c0.1-0.1,0.1,0,0.2,0.1
					C60.7,90.8,60.7,91.5,60.6,92.2z M76.2,90.4c-0.5,0.2-1,0.2-1.5-0.1c-0.8-0.4-1.6-0.2-2.4-0.2c-0.1,0-0.1,0.1-0.2,0.2
					c-0.1,0.2-0.2,0.4-0.4,0.6c-0.5-1.6-1.2-3.1-1.2-4.8c0-0.4,0-0.7,0.1-1.1c0.2-0.7,0.6-1,1.3-0.8c0.6,0.1,1.2,0.5,1.6,0.9
					c1.1,1,2,2.1,2.7,3.3c0.2,0.3,0.4,0.7,0.4,1.1C76.7,90,76.6,90.3,76.2,90.4z M83,83.7c-0.1,0.6-0.3,1.2-0.5,1.7
					c-0.1,0.2-0.2,0.3-0.2,0.5c-0.1,0.2-0.2,0.5-0.4,0.4c-0.2,0-0.3-0.4-0.3-0.6c-0.3-1.6,0.1-3.2,0.9-4.6c0.2-0.3,0.4-0.5,0.7-0.6
					C83.3,81.6,83.2,82.6,83,83.7z"/>
				<path class="st0" d="M72.5,69.4c-0.3-0.5-0.6-1-0.9-1.6c-0.3-0.5-0.5-1.1-0.9-1.6c-0.6-0.7-0.9-0.9-1.8-0.7
					c-0.1,0-0.2,0-0.3,0.1c-0.5,0.4-0.8,1-0.9,1.6c-0.1,0.6-0.2,1.2-0.4,1.8c-0.4,1.4-1.2,2.6-2.3,3.6c-0.3,0.3-0.6,0.4-1,0.3
					c-0.6-0.2-1.2-0.5-1.6-1c-0.4-0.6-0.6-1.2-0.9-1.9c-0.3-0.8-0.6-1.5-1.2-2.2c-0.4-0.3-0.7-0.4-1.2-0.3c-0.5,0.1-0.8,0.5-1,0.9
					c-0.5,0.7-0.9,1.5-1.3,2.3c-0.6,1.2-1.2,2.4-2.2,3.3c-0.3,0.3-0.3,0.3-0.6,0c-0.7-0.7-1-1.6-1.2-2.5c-0.2-0.7-0.4-1.5-0.9-2.1
					c-0.2-0.3-0.5-0.5-0.8-0.6c-0.7-0.2-1.7,0.3-2.1,1c-0.3,0.6-0.5,1.2-0.6,1.8c-0.4,1.2-0.9,2.3-1.5,3.4c-0.2,0.4-0.5,0.8-0.8,1.2
					c-0.2-0.3-0.4-0.5-0.5-0.8c-0.3-0.5-0.3-0.6,0.2-0.9c0,0,0.1,0,0.1-0.1c0.7-0.4,0.9-0.7,0.6-1.7c-0.1-0.3-0.2-0.6-0.3-0.9
					c-0.4-1.2-0.4-2.4-0.5-3.7c-0.1-2.1,0.1-4.3-0.2-6.4c-0.1-0.8-0.2-1.7-0.4-2.5c-0.3-1.3-0.9-2.5-2-3.3c-0.6-0.4-1.2-0.6-1.9-0.5
					c-0.7,0.1-1.3,0.6-1.7,1.2c-0.7,1.1-0.9,2.3-1,3.5c0,0.5-0.1,1.1,0,1.6c0.1,0.5,0,1,0,1.5c0.1,1,0.1,2,0.3,3
					c0.1,0.7,0.3,1.5,0.5,2.2c0.4,1.3,0.9,2.5,1.5,3.8c0.7,1.5,1.4,2.9,2.2,4.4c0.5,0.9,1,1.7,1.8,2.3c0.4,0.3,0.8,0.5,1.2,0.4
					c0.7,0,1.3-0.5,1.8-1c0.7-0.8,1.2-1.7,1.7-2.7c0.3-0.6,0.6-1.2,0.9-1.9c0.1,0.1,0.2,0.2,0.3,0.3c0.6,0.8,1.1,1.5,1.8,2.2
					c0.5,0.5,1.1,0.8,1.8,0.8c0.8,0,1.5-0.4,2.1-0.9c0.7-0.6,1.3-1.4,1.9-2.2c0.4-0.6,0.7-1.2,1.2-1.6c0,0,0.1,0.1,0.1,0.1
					c0.5,0.7,1,1.4,1.7,1.9c0.4,0.4,0.9,0.7,1.5,0.9c0.7,0.2,1.3,0.3,2,0.2c0.6-0.1,1.2-0.3,1.7-0.6c0.4-0.3,0.8-0.6,1.1-1
					c0.4-0.5,0.9-1.1,1.2-1.7c0.3-0.6,0.7-1.2,0.9-1.8c0.4,0.3,0.7,0.7,1.2,1c0.6,0.3,1.5,0,1.8-0.8C73,70.3,72.8,69.9,72.5,69.4z
					 M43.1,67.1c0,0.7,0,1.4,0,2.1c0,0.3,0,0.5,0,0.8c-0.3-0.2-0.4-0.5-0.5-0.8c-0.2-0.6-0.4-1.2-0.6-1.8c-0.1-0.5-0.2-1.1-0.3-1.6
					c-0.1-0.6-0.1-1.2-0.2-1.8c-0.1-0.3,0-0.6-0.1-0.9c0-0.7-0.1-1.3-0.1-2c0.1-0.7,0.1-1.4,0.4-2.1c0.1-0.1,0.1-0.2,0.2,0
					c0.4,0.5,0.5,1,0.6,1.6c0.2,0.7,0.2,1.5,0.3,2.2C43.2,64.2,43.1,65.7,43.1,67.1z"/>
				<path class="st0" d="M86.7,65.5c-0.1-0.4-0.2-0.7-0.4-1c-0.8-1.4-1.6-2.9-2.3-4.3c-1-2-2-4-3-6c-0.8-1.5-1.5-2.9-2.1-4.4
					c-0.3-0.8-0.7-1.7-1.3-2.4c-0.4-0.6-0.9-1.1-1.5-1.4c-0.4-0.2-1.1-0.1-1.3,0.4c-0.1,0.2-0.1,0.5-0.2,0.7c0,0.2,0,0.4,0,0.6
					c0,0.3,0.1,0.6,0.2,0.9c0.2,0.7,0.6,1.4,1,2.1c0.5,0.9,0.9,1.7,1.4,2.6c0.5,1,1.1,2,1.7,3c0.2,0.4,0.5,0.8,0.8,1.1
					c0.1,0.1,0.2,0.1,0.2,0.2c0,0.1-0.2,0.1-0.2,0.1c-0.1,0-0.1,0-0.2,0.1c-0.6,0.1-1.3,0.3-1.9,0.6c-1,0.5-1.7,1.2-2.4,2.1
					c-0.5,0.6-0.9,1.3-1.2,2c-0.3,0.6-0.5,1.2-0.5,1.8c0,0.1,0,0.2,0,0.3c0,0.2,0,0.5,0,0.7c0,0.1,0,0.2,0,0.3
					c0,0.6,0.2,1.1,0.5,1.6c0.6,1.3,1.6,2.2,3,2.4c0.1,0,0.2,0,0.3,0c0.1,0,0.3,0,0.4,0c0.1,0,0.2,0,0.3,0c0.3-0.1,0.7-0.2,1-0.3
					c1-0.4,1.8-1.1,2.6-1.8c0.6-0.6,1.2-1.2,1.7-1.8c0.2-0.2,0.3-0.2,0.6-0.1c0.1,0.1,0.1,0.1,0.2,0.2c0.2,0.3,0.3,0.6,0.6,0.8
					c0.2,0.2,0.4,0.5,0.8,0.6c0.1,0,0.2,0,0.3,0c0.5-0.3,0.8-0.7,0.9-1.3C86.7,65.7,86.7,65.6,86.7,65.5z M80.1,65.4
					c-0.4,0.5-0.8,0.9-1.3,1.3c-0.2,0.2-0.5,0.3-0.8,0.4c-0.6,0.2-1.2,0-1.6-0.5c-0.7-0.9-0.7-1.9-0.3-2.9c0.7-1.7,1.9-2.9,3.6-3.5
					c1.1-0.4,1.6-0.1,1.7,1.1c0,0.2,0,0.4,0.1,0.5C81.5,63.1,81,64.3,80.1,65.4z"/>
			</g>
		</g>
	</g>
</g>
</svg>
